<svg width="639" height="162" viewBox="0 0 639 162" fill="none" xmlns="http://www.w3.org/2000/svg">
<path d="M49.88 76V55.6H76.28C89.4 55.6 97.48 48.56 97.48 37.84C97.48 27.28 89.08 20 76.04 20H38.52V76H49.88ZM49.88 29.92H74.76C82.28 29.92 85.96 32.88 85.96 37.84C85.96 42.8 82.28 45.68 74.76 45.68H49.88V29.92ZM168.224 76L137.824 20H123.584L93.1837 76H105.744L112.784 62.88H148.224L155.264 76H168.224ZM130.544 29.6L142.944 52.96H118.064L130.544 29.6ZM186.911 76V54.88H215.951C220.271 54.88 221.951 56.16 221.951 60.48V76H233.311V57.36C233.311 52 230.751 49.12 224.191 49.12C230.111 47.44 234.671 42.4 234.671 35.44C234.671 26.48 226.671 20 214.751 20H175.551V76H186.911ZM186.911 29.92H213.231C219.471 29.92 223.151 32.56 223.151 37.36C223.151 41.92 219.471 44.96 213.231 44.96H186.911V29.92ZM315.333 76L284.933 20H270.693L240.293 76H252.853L259.893 62.88H295.333L302.373 76H315.333ZM277.653 29.6L290.053 52.96H265.173L277.653 29.6ZM378.821 76V66.08H334.021V20H322.661V76H378.821ZM444.289 76V66.08H399.489V20H388.129V76H444.289ZM464.958 52.16H507.278V42.24H464.958V29.92H512.078V20H453.598V76H512.878V66.08H464.958V52.16ZM580.618 76V66.08H535.818V20H524.458V76H580.618Z" fill="white"/>
<path d="M174.872 117V98.568H185.528V94.6H159.672V98.568H170.328V117H174.872ZM193.74 117V107.688H210.252V117H214.796V94.6H210.252V103.72H193.74V94.6H189.196V117H193.74ZM225.365 107.464H242.293V103.496H225.365V98.568H244.213V94.6H220.821V117H244.533V113.032H225.365V107.464ZM259.884 117.32C267.884 117.32 271.532 114.728 271.532 110.344C271.532 106.568 268.812 104.52 263.02 103.816L257.708 103.176C254.124 102.76 253.324 102.024 253.324 100.872C253.324 99.368 255.084 98.248 259.436 98.248H260.076C264.396 98.248 266.732 99.752 267.084 101.64H272.172C271.788 97.192 267.692 94.28 259.788 94.28C251.852 94.28 248.684 97.384 248.684 100.776C248.684 104.936 251.02 106.76 257.484 107.592L262.956 108.264C266.06 108.648 266.764 109.544 266.764 110.728C266.764 112.04 265.484 113.352 260.172 113.352H259.532C254.188 113.352 252.396 111.464 252.204 109.48H247.308C247.436 114.312 251.148 117.32 259.884 117.32ZM281.146 117V94.6H276.602V117H281.146ZM297.884 117.32C305.884 117.32 309.532 114.728 309.532 110.344C309.532 106.568 306.812 104.52 301.02 103.816L295.708 103.176C292.124 102.76 291.324 102.024 291.324 100.872C291.324 99.368 293.084 98.248 297.436 98.248H298.076C302.396 98.248 304.732 99.752 305.084 101.64H310.172C309.788 97.192 305.692 94.28 297.788 94.28C289.852 94.28 286.684 97.384 286.684 100.776C286.684 104.936 289.02 106.76 295.484 107.592L300.956 108.264C304.06 108.648 304.764 109.544 304.764 110.728C304.764 112.04 303.484 113.352 298.172 113.352H297.532C292.188 113.352 290.396 111.464 290.204 109.48H285.308C285.436 114.312 289.148 117.32 297.884 117.32ZM334.791 117.32C342.791 117.32 346.439 114.728 346.439 110.344C346.439 106.568 343.719 104.52 337.927 103.816L332.615 103.176C329.031 102.76 328.231 102.024 328.231 100.872C328.231 99.368 329.991 98.248 334.343 98.248H334.983C339.303 98.248 341.639 99.752 341.991 101.64H347.079C346.695 97.192 342.599 94.28 334.695 94.28C326.759 94.28 323.591 97.384 323.591 100.776C323.591 104.936 325.927 106.76 332.391 107.592L337.863 108.264C340.967 108.648 341.671 109.544 341.671 110.728C341.671 112.04 340.391 113.352 335.079 113.352H334.439C329.095 113.352 327.303 111.464 327.111 109.48H322.215C322.343 114.312 326.055 117.32 334.791 117.32ZM356.052 117V107.688H372.564V117H377.108V94.6H372.564V103.72H356.052V94.6H351.508V117H356.052ZM396.733 117.32C405.117 117.32 411.741 113.224 411.741 105.8C411.741 98.376 405.117 94.28 396.733 94.28C388.317 94.28 381.693 98.376 381.693 105.8C381.693 113.224 388.317 117.32 396.733 117.32ZM396.413 113.352C390.941 113.352 386.301 110.76 386.301 105.8C386.301 100.84 390.941 98.248 396.413 98.248H397.053C402.525 98.248 407.133 100.84 407.133 105.8C407.133 110.76 402.525 113.352 397.053 113.352H396.413ZM441.451 111.656L435.371 94.6H429.771L423.819 111.496L418.155 94.6H413.323L421.003 117H426.411L432.523 99.816L438.667 117H444.043L451.723 94.6H446.987L441.451 111.656Z" fill="white"/>
<path d="M5.824 157V148.04H12.224C16.288 148.04 19.392 145.64 19.392 141.32C19.392 137 16.288 134.6 12.224 134.6H2.944V157H5.824ZM5.824 137.224H11.744C14.72 137.224 16.512 138.6 16.512 141.32C16.512 144.04 14.72 145.416 11.744 145.416H5.824V137.224ZM42.3608 157L33.4328 134.6H29.7848L20.7928 157H23.7368L26.0728 151.112H37.0168L39.3528 157H42.3608ZM31.5448 137.256L35.9928 148.488H27.0968L31.5448 137.256ZM50.0553 157V147.88H58.4393C59.9433 147.88 60.4233 148.36 60.4233 149.864V157H63.3033V149.32C63.3033 147.08 62.4713 146.216 60.0393 146.216C62.0873 145.512 63.6233 143.432 63.6233 140.648C63.6233 137.16 60.7113 134.6 56.6473 134.6H47.1753V157H50.0553ZM50.0553 137.224H56.1993C59.0473 137.224 60.7433 138.6 60.7433 141.064C60.7433 143.496 58.8873 145.256 56.1993 145.256H50.0553V137.224ZM77.4708 157.32C82.3988 157.32 85.5988 154.888 85.5988 150.952C85.5988 147.4 83.4228 145.416 79.6148 144.648L76.0308 143.944C74.0148 143.528 72.7348 142.472 72.7348 140.648C72.7348 138.504 74.6868 136.904 77.5988 136.904H77.9188C80.7668 136.904 82.8788 138.568 83.0708 141.256H85.9508C85.7908 136.968 82.6548 134.28 77.7588 134.28C72.9268 134.28 69.8548 137.16 69.8548 140.68C69.8548 144.136 71.9028 146.088 75.4228 146.824L79.0068 147.56C81.5028 148.072 82.7188 149.16 82.7188 151.08C82.7188 153.096 81.0228 154.696 77.8868 154.696H77.5668C74.0788 154.696 71.6148 153 71.6148 149.864H68.7348C68.8308 154.728 72.1588 157.32 77.4708 157.32ZM101.12 157.32C107.136 157.32 111.584 153 111.584 145.8C111.584 138.6 107.136 134.28 101.12 134.28C95.1043 134.28 90.6883 138.6 90.6883 145.8C90.6883 153 95.1043 157.32 101.12 157.32ZM100.96 154.696C96.6723 154.696 93.5683 151.368 93.5683 145.8C93.5683 140.232 96.6723 136.904 100.96 136.904H101.28C105.568 136.904 108.704 140.232 108.704 145.8C108.704 151.368 105.568 154.696 101.28 154.696H100.96ZM132.765 153.32L121.725 134.6H117.757V157H120.637V138.184L131.741 157H135.645V134.6H132.765V153.32ZM150.146 157.32C155.074 157.32 158.274 154.888 158.274 150.952C158.274 147.4 156.098 145.416 152.29 144.648L148.706 143.944C146.69 143.528 145.41 142.472 145.41 140.648C145.41 138.504 147.362 136.904 150.274 136.904H150.594C153.442 136.904 155.554 138.568 155.746 141.256H158.626C158.466 136.968 155.33 134.28 150.434 134.28C145.602 134.28 142.53 137.16 142.53 140.68C142.53 144.136 144.578 146.088 148.098 146.824L151.682 147.56C154.178 148.072 155.394 149.16 155.394 151.08C155.394 153.096 153.698 154.696 150.562 154.696H150.242C146.754 154.696 144.29 153 144.29 149.864H141.41C141.506 154.728 144.834 157.32 150.146 157.32ZM182.054 157C188.23 157 192.358 152.872 192.358 145.832C192.358 138.792 188.23 134.6 182.054 134.6H174.15V157H182.054ZM177.03 137.224H181.734C186.662 137.224 189.478 140.232 189.478 145.8C189.478 151.368 186.662 154.376 181.734 154.376H177.03V137.224ZM214.947 157V154.376H201.411V146.792H212.707V144.168H201.411V137.224H214.627V134.6H198.531V157H214.947ZM227.921 157.32C232.849 157.32 236.049 154.888 236.049 150.952C236.049 147.4 233.873 145.416 230.065 144.648L226.481 143.944C224.465 143.528 223.185 142.472 223.185 140.648C223.185 138.504 225.137 136.904 228.049 136.904H228.369C231.217 136.904 233.329 138.568 233.521 141.256H236.401C236.241 136.968 233.105 134.28 228.209 134.28C223.377 134.28 220.305 137.16 220.305 140.68C220.305 144.136 222.353 146.088 225.873 146.824L229.457 147.56C231.953 148.072 233.169 149.16 233.169 151.08C233.169 153.096 231.473 154.696 228.337 154.696H228.017C224.529 154.696 222.065 153 222.065 149.864H219.185C219.281 154.728 222.609 157.32 227.921 157.32ZM245.33 157V134.6H242.45V157H245.33ZM262.047 157.32C265.631 157.32 267.967 155.656 268.863 154.344V157H271.455V148.2C271.455 146.568 270.591 145.704 268.959 145.704H262.303V148.296H268.863V149.064C268.863 152.328 266.271 154.696 262.463 154.696H262.143C257.535 154.696 254.399 151.464 254.399 145.8C254.399 140.136 257.535 136.904 262.111 136.904H262.431C265.855 136.904 268.031 138.728 268.415 141.896H271.295C270.943 137.512 267.807 134.28 262.271 134.28C255.583 134.28 251.519 139.08 251.519 145.8C251.519 152.52 255.583 157.32 262.047 157.32ZM292.971 153.32L281.931 134.6H277.963V157H280.843V138.184L291.947 157H295.851V134.6H292.971V153.32ZM320.563 156.52V149.992H327.059V147.528H320.563V141H317.779V147.528H311.251V149.992H317.779V156.52H320.563ZM350 157V137.224H358.064V134.6H339.056V137.224H347.12V157H350ZM379.535 157V154.376H365.999V146.792H377.295V144.168H365.999V137.224H379.215V134.6H363.119V157H379.535ZM394.183 157.32C399.015 157.32 402.727 154.44 403.015 150.024H400.135C399.815 152.712 397.703 154.696 394.343 154.696H394.023C389.223 154.696 386.599 150.728 386.599 145.8C386.599 140.872 389.223 136.904 394.023 136.904H394.343C397.703 136.904 399.815 138.888 400.135 141.576H403.015C402.727 137.16 399.015 134.28 394.183 134.28C387.687 134.28 383.719 139.24 383.719 145.8C383.719 152.36 387.687 157.32 394.183 157.32ZM411.949 157V147.112H423.757V157H426.637V134.6H423.757V144.488H411.949V134.6H409.069V157H411.949ZM449.146 153.32L438.106 134.6H434.138V157H437.018V138.184L448.122 157H452.026V134.6H449.146V153.32ZM468.639 157.32C474.655 157.32 479.103 153 479.103 145.8C479.103 138.6 474.655 134.28 468.639 134.28C462.623 134.28 458.207 138.6 458.207 145.8C458.207 153 462.623 157.32 468.639 157.32ZM468.479 154.696C464.191 154.696 461.087 151.368 461.087 145.8C461.087 140.232 464.191 136.904 468.479 136.904H468.799C473.087 136.904 476.223 140.232 476.223 145.8C476.223 151.368 473.087 154.696 468.799 154.696H468.479ZM501.371 157V154.376H488.155V134.6H485.275V157H501.371ZM514.183 157.32C520.199 157.32 524.647 153 524.647 145.8C524.647 138.6 520.199 134.28 514.183 134.28C508.167 134.28 503.751 138.6 503.751 145.8C503.751 153 508.167 157.32 514.183 157.32ZM514.023 154.696C509.735 154.696 506.631 151.368 506.631 145.8C506.631 140.232 509.735 136.904 514.023 136.904H514.343C518.631 136.904 521.767 140.232 521.767 145.8C521.767 151.368 518.631 154.696 514.343 154.696H514.023ZM540.003 157.32C543.587 157.32 545.923 155.656 546.819 154.344V157H549.411V148.2C549.411 146.568 548.547 145.704 546.915 145.704H540.259V148.296H546.819V149.064C546.819 152.328 544.227 154.696 540.419 154.696H540.099C535.491 154.696 532.355 151.464 532.355 145.8C532.355 140.136 535.491 136.904 540.067 136.904H540.387C543.811 136.904 545.987 138.728 546.371 141.896H549.251C548.899 137.512 545.763 134.28 540.227 134.28C533.539 134.28 529.475 139.08 529.475 145.8C529.475 152.52 533.539 157.32 540.003 157.32ZM563.236 157V147.72L571.3 134.6H568.068L561.86 144.872L555.62 134.6H552.292L560.356 147.72V157H563.236Z" fill="white"/>
<path d="M596.286 29.542C602.334 26.602 606.03 23.704 606.03 18.916C606.03 13.456 600.612 10.18 593.01 10.18C584.862 10.18 579.108 14.044 578.898 19.798H584.862C585.03 17.236 587.886 15.178 592.716 15.178H593.304C597.546 15.178 600.192 16.732 600.192 18.958C600.192 21.478 598.176 22.822 593.346 25.216L578.646 32.44V40H606.198V34.792H585.492L596.286 29.542ZM610.491 17.992V24.208L621.159 17.362V40H626.829V10.6H622.041L610.491 17.992Z" fill="white"/>
</svg>
